<svg width="128px" height="128px" version="1.1" viewBox="0 0 128 128" xmlns="http://www.w3.org/2000/svg" xmlns:xlink="http://www.w3.org/1999/xlink"><defs><linearGradient id="a" x1="7.7074" x2="118.74" y1="247.68" y2="247.68" gradientTransform="translate(.49023 -16.628)" gradientUnits="userSpaceOnUse"><stop stop-color="#33d179" offset="0"/><stop stop-color="#57e389" offset=".030781"/><stop stop-color="#25a45e" stop-opacity=".98824" offset=".066244"/><stop stop-color="#2dc06f" stop-opacity=".93333" offset=".6511"/><stop stop-color="#25a05d" stop-opacity=".92941" offset=".68375"/><stop stop-color="#33d179" stop-opacity=".90551" offset="1"/></linearGradient></defs><g><path d="m8.486 58 3.14e-4 49.16c3.13e-5 4.8945 3.9414 8.8359 8.8359 8.8359h59.422c6.1406 0 10.363-3.3125 13.633-6.3476l23.324-24.035c3.6498-3.573 5.7232-8.4446 5.7988-13.545l0.0137-4.271-19.514-9.7973zm91.672 5.7578c4.4414-0.0039 8.043 3.5977 8.043 8.0391 0 4.4453-3.6016 8.0469-8.043 8.043-4.4414 0-8.043-3.5977-8.043-8.043 0-4.4414 3.6016-8.0391 8.043-8.0391z" fill="url(#a)"/><path d="m17.322 23.489c-4.8945 0-8.8359 3.9453-8.8359 8.8398v70.832c0 4.8945 3.9414 8.8359 8.8359 8.8359h59.422c6.1406 0 10.363-3.3125 13.633-6.3476l23.324-24.035c3.7148-3.6367 5.8086-8.6172 5.8125-13.816-4e-3 -5.1953-2.0977-10.172-5.8125-13.809l-23.562-24.016c-3.7344-3.7344-8.9141-6.4844-15.43-6.4844zm82.836 36.27c4.4414-0.0039 8.043 3.5977 8.043 8.0391 0 4.4453-3.6016 8.0469-8.043 8.043-4.4414 0-8.043-3.5977-8.043-8.043 0-4.4414 3.6016-8.0391 8.043-8.0391z" fill="#8ff0a3"/><path d="m36.49 35.446v17.926h7.9727v10h-16.973v10h-7v18h20v-18h-8v-6h27.973v6h-7.9727v18h20v-18h-7.9102v-10h-16.09v-10h8v-17.926z" fill="#176642"/></g></svg>
